<svg xmlns="http://www.w3.org/2000/svg" version="1.0" viewBox="0 0 1024 1280" preserveAspectRatio="xMidYMid meet" x="0px" y="0px"><g transform="translate(0.000000,1024.000000) scale(0.100000,-0.100000)" fill="#000000" stroke="none"><path d="M4270 6565 c-72 -18 -134 -46 -191 -87 -25 -18 -239 -219 -475 -447 -236 -227 -439 -420 -451 -428 -20 -13 -138 -35 -593 -108 -860 -138 -952 -155 -1013 -187 -92 -49 -154 -139 -177 -253 -8 -42 -10 -196 -8 -505 3 -440 3 -445 26 -487 34 -64 80 -111 136 -141 l51 -27 283 -3 c182 -2 282 -7 282 -13 0 -20 88 -145 136 -193 242 -241 623 -264 901 -53 62 46 144 141 182 209 l26 48 1712 0 1712 0 32 -57 c43 -78 188 -220 264 -260 121 -63 185 -78 340 -78 101 1 154 5 190 17 179 58 315 164 403 314 l37 64 141 0 c209 0 289 32 350 142 l29 53 0 535 c0 604 1 596 -77 684 -61 70 -125 101 -249 121 -24 3 -46 17 -64 38 -16 17 -85 93 -154 167 -70 74 -260 280 -424 456 -163 177 -317 340 -341 361 -25 22 -74 54 -108 71 -135 66 -49 62 -1519 61 -1083 -1 -1344 -3 -1389 -14z m928 -727 l-3 -353 -760 0 -760 0 -3 23 c-4 25 -16 13 233 247 93 88 225 213 293 278 68 65 138 127 155 138 30 18 54 19 440 19 l407 0 -2 -352z m1752 342 c26 -14 540 -642 540 -660 0 -5 -7 -16 -16 -24 -14 -14 -113 -16 -945 -16 l-929 0 0 355 0 355 666 0 c433 0 672 -4 684 -10z m-3986 -1564 c249 -123 347 -420 218 -660 -15 -28 -54 -78 -88 -112 -186 -187 -478 -191 -669 -8 -105 101 -150 217 -143 372 3 87 7 105 41 176 59 123 167 218 302 262 26 9 80 13 151 11 105 -2 113 -4 188 -41z m4627 24 c211 -65 356 -278 336 -494 -39 -414 -541 -594 -833 -299 -216 218 -178 567 80 738 30 20 80 45 113 55 81 26 220 26 304 0z"/></g><text x="0" y="1039" fill="#000000" font-size="5px" font-weight="bold" font-family="'Helvetica Neue', Helvetica, Arial-Unicode, Arial, Sans-serif">Created by 재현 임</text><text x="0" y="1044" fill="#000000" font-size="5px" font-weight="bold" font-family="'Helvetica Neue', Helvetica, Arial-Unicode, Arial, Sans-serif">from the Noun Project</text></svg>